<svg width="21" height="32" viewBox="0 0 21 32" fill="none" xmlns="http://www.w3.org/2000/svg">
<path fill-rule="evenodd" clip-rule="evenodd" d="M6.85547 5.22481C6.85547 4.57502 7.06065 3.58294 7.65876 2.77154C8.23248 1.99323 9.19954 1.33333 10.8555 1.33333C12.5114 1.33333 13.4785 1.99323 14.0522 2.77154C14.6503 3.58294 14.8555 4.57502 14.8555 5.22481V8.66667H6.85547V5.22481ZM5.52214 10V14.6667H6.85547V10H14.8555V14.6667H16.1888V10H19.5221V30.6667H2.1888V10H5.52214ZM5.52214 8.66667V5.22481C5.52214 4.35521 5.78362 3.06823 6.58551 1.9804C7.41179 0.859479 8.77806 0 10.8555 0C12.9329 0 14.2992 0.859479 15.1254 1.9804C15.9273 3.06823 16.1888 4.35521 16.1888 5.22481V8.66667H20.8555V32H0.855469V8.66667H5.52214Z" fill="white"/>
</svg>
