<svg width="140" height="80" viewBox="0 0 140 80" fill="none" xmlns="http://www.w3.org/2000/svg">
<path d="M46.6796 26.3644L93.2297 26.3644L69.9547 67.2657L46.6796 26.3644Z" stroke="#00843D" stroke-width="2"/>
<path d="M2.02631 51.407H6.25031C8.85831 51.407 10.8423 50.303 10.8423 47.919C10.8423 46.319 9.89831 45.423 8.61831 45.119V45.039C9.62631 44.687 10.2343 43.567 10.2343 42.479C10.2343 40.271 8.37831 39.551 5.94631 39.551H2.02631V51.407ZM4.39431 44.383V41.375H5.80231C7.22631 41.375 7.93031 41.791 7.93031 42.831C7.93031 43.775 7.27431 44.383 5.77031 44.383H4.39431ZM4.39431 49.583V46.127H6.04231C7.67431 46.127 8.53831 46.623 8.53831 47.775C8.53831 49.007 7.65831 49.583 6.04231 49.583H4.39431ZM17.6209 51.631C20.7569 51.631 22.9169 49.279 22.9169 45.439C22.9169 41.599 20.7569 39.343 17.6209 39.343C14.4849 39.343 12.3249 41.583 12.3249 45.439C12.3249 49.279 14.4849 51.631 17.6209 51.631ZM17.6209 49.583C15.8609 49.583 14.7409 47.967 14.7409 45.439C14.7409 42.895 15.8609 41.375 17.6209 41.375C19.3809 41.375 20.5009 42.895 20.5009 45.439C20.5009 47.967 19.3809 49.583 17.6209 49.583ZM27.0814 51.407H29.4494V41.535H32.8094V39.551H23.7534V41.535H27.0814V51.407ZM37.0814 51.407H39.4494V41.535H42.8094V39.551H33.7534V41.535H37.0814V51.407ZM44.7294 51.407H52.1694V49.423H47.0974V46.255H51.2574V44.271H47.0974V41.535H51.9934V39.551H44.7294V51.407ZM59.6612 51.631C61.3092 51.631 62.7012 50.991 63.5012 50.207V44.863H59.2932V46.799H61.3892V49.135C61.0532 49.423 60.4772 49.583 59.9172 49.583C57.5812 49.583 56.3972 48.031 56.3972 45.455C56.3972 42.911 57.7732 41.375 59.7412 41.375C60.8132 41.375 61.4852 41.807 62.0772 42.367L63.3252 40.863C62.5572 40.079 61.3732 39.343 59.6612 39.343C56.5092 39.343 53.9812 41.631 53.9812 45.535C53.9812 49.487 56.4452 51.631 59.6612 51.631ZM68.4929 45.231C68.8449 43.999 69.1969 42.655 69.5009 41.359H69.5809C69.9169 42.639 70.2369 43.999 70.6049 45.231L70.9569 46.527H68.1409L68.4929 45.231ZM64.3969 51.407H66.7969L67.6289 48.367H71.4689L72.3009 51.407H74.7809L70.9729 39.551H68.1889L64.3969 51.407ZM81.8719 51.407H84.7039L88.3199 39.551H85.9199L84.3839 45.327C84.0159 46.639 83.7599 47.823 83.3759 49.151H83.2959C82.9279 47.823 82.6719 46.639 82.3039 45.327L80.7359 39.551H78.2559L81.8719 51.407ZM89.6826 51.407H97.1226V49.423H92.0506V46.255H96.2106V44.271H92.0506V41.535H96.9466V39.551H89.6826V51.407ZM99.5263 51.407H101.766V46.655C101.766 45.295 101.59 43.807 101.478 42.527H101.558L102.758 45.071L106.182 51.407H108.582V39.551H106.342V44.287C106.342 45.631 106.534 47.199 106.646 48.431H106.566L105.382 45.871L101.942 39.551H99.5263V51.407ZM111.511 51.407H118.951V49.423H113.879V46.255H118.039V44.271H113.879V41.535H118.775V39.551H111.511V51.407ZM123.706 51.407H126.074V41.535H129.434V39.551H120.378V41.535H123.706V51.407ZM133.212 45.231C133.564 43.999 133.916 42.655 134.22 41.359H134.3C134.636 42.639 134.956 43.999 135.324 45.231L135.676 46.527H132.86L133.212 45.231ZM129.116 51.407H131.516L132.348 48.367H136.188L137.02 51.407H139.5L135.692 39.551H132.908L129.116 51.407Z" fill="white"/>
</svg>
