<svg width="29" height="32" viewBox="0 0 29 32" fill="none" xmlns="http://www.w3.org/2000/svg">
<path fill-rule="evenodd" clip-rule="evenodd" d="M22.7305 7.33333C22.7305 10.647 19.2047 13.3333 14.8555 13.3333C10.5062 13.3333 6.98047 10.647 6.98047 7.33333C6.98047 4.01962 10.5062 1.33333 14.8555 1.33333C19.2047 1.33333 22.7305 4.01962 22.7305 7.33333ZM24.4805 7.33333C24.4805 11.3834 20.1712 14.6667 14.8555 14.6667C9.53973 14.6667 5.23047 11.3834 5.23047 7.33333C5.23047 3.28325 9.53973 0 14.8555 0C20.1712 0 24.4805 3.28325 24.4805 7.33333ZM14.8555 14.6667H13.9805C13.6956 14.6667 13.4128 14.6736 13.1324 14.6872C6.27891 15.0202 0.855469 19.3609 0.855469 24.6667V32H3.48047V24.6667C3.48047 19.512 8.18148 15.3333 13.9805 15.3333H15.7305C21.5295 15.3333 26.2305 19.512 26.2305 24.6667V32H28.8555V24.6667C28.8555 19.3609 23.432 15.0202 16.5785 14.6872C16.2981 14.6736 16.0154 14.6667 15.7305 14.6667H14.8555Z" fill="white"/>
</svg>
