<svg width="32" height="32" viewBox="0 0 32 32" fill="none" xmlns="http://www.w3.org/2000/svg">
<path fill-rule="evenodd" clip-rule="evenodd" d="M19.5 10.9592C19.5 15.8012 16.6567 21 11.8146 21C6.97257 21 3.5 15.8012 3.5 10.9592C3.5 6.1171 6.97257 1 11.8146 1C16.6567 1 19.5 6.1171 19.5 10.9592ZM17.9115 20.0672C16.1684 21.2363 14.0712 21.9183 11.8146 21.9183C5.76205 21.9183 0.855469 17.0117 0.855469 10.9592C0.855469 4.90658 5.76205 0 11.8146 0C17.8672 0 22.7738 4.90658 22.7738 10.9592C22.7738 13.9629 21.5653 16.6844 19.6081 18.664L31.3942 30.4501L29.8444 32L17.9115 20.0672Z" fill="white"/>
</svg>
